HIERARCHY
ROOT Hip
{
	OFFSET 0.947194 -2.016911 0.232189
	CHANNELS 6 Xposition Yposition Zposition Xrotation Yrotation Zrotation
	JOINT LowerSpine
	{
		OFFSET -0.002640 0.134975 0.270626
		CHANNELS 6 Xposition Yposition Zposition Xrotation Yrotation Zrotation
		JOINT MiddleSpine
		{
			OFFSET -0.000263 -0.028711 0.235674
			CHANNELS 3 Xrotation Yrotation Zrotation
			JOINT Chest
			{
				OFFSET -0.001348 0.036852 0.296998
				CHANNELS 3 Xrotation Yrotation Zrotation
				JOINT Neck
				{
					OFFSET -0.001347 -0.036708 0.660374
					CHANNELS 6 Xposition Yposition Zposition Xrotation Yrotation Zrotation
					JOINT Head
					{
						OFFSET 0.000767 -0.128981 0.364873
						CHANNELS 3 Xrotation Yrotation Zrotation
						End Site
						{
							OFFSET -0.000072 -0.005574 0.053362
						}
					}
				}
				JOINT LClavicle
				{
					OFFSET 0.061721 -0.242713 0.621989
					CHANNELS 6 Xposition Yposition Zposition Xrotation Yrotation Zrotation
					JOINT LShoulder
					{
						OFFSET 0.348743 0.145790 0.103251
						CHANNELS 3 Xrotation Yrotation Zrotation
						JOINT LForearm
						{
							OFFSET 0.828321 0.018910 -0.000066
							CHANNELS 3 Xrotation Yrotation Zrotation
							JOINT LHand
							{
								OFFSET 0.691012 0.013602 0.004250
								CHANNELS 3 Xrotation Yrotation Zrotation
								JOINT LFinger1
								{
									OFFSET 0.268847 -0.072196 0.018600
									CHANNELS 6 Xposition Yposition Zposition Xrotation Yrotation Zrotation
									JOINT LFinger11
									{
										OFFSET 0.100477 -0.014397 -0.025392
										CHANNELS 3 Xrotation Yrotation Zrotation
										JOINT LFinger12
										{
											OFFSET 0.068594 -0.009833 -0.017338
											CHANNELS 3 Xrotation Yrotation Zrotation
											End Site
											{
												OFFSET 0.050939 -0.006386 -0.015590
											}
										}
									}
								}
								JOINT LFinger2
								{
									OFFSET 0.271882 -0.004680 0.027263
									CHANNELS 6 Xposition Yposition Zposition Xrotation Yrotation Zrotation
									JOINT LFinger21
									{
										OFFSET 0.123862 0.002427 0.000746
										CHANNELS 3 Xrotation Yrotation Zrotation
										JOINT LFinger22
										{
											OFFSET 0.068657 0.001357 0.000434
											CHANNELS 3 Xrotation Yrotation Zrotation
											End Site
											{
												OFFSET 0.053522 0.000953 -0.003625
											}
										}
									}
								}
								JOINT LFinger3
								{
									OFFSET 0.256733 0.063030 0.023248
									CHANNELS 6 Xposition Yposition Zposition Xrotation Yrotation Zrotation
									JOINT LFinger31
									{
										OFFSET 0.112314 0.009006 -0.004839
										CHANNELS 3 Xrotation Yrotation Zrotation
										JOINT LFinger32
										{
											OFFSET 0.064001 0.005143 -0.002735
											CHANNELS 3 Xrotation Yrotation Zrotation
											End Site
											{
												OFFSET 0.053164 0.003732 -0.006186
											}
										}
									}
								}
								JOINT LFinger4
								{
									OFFSET 0.237614 0.109645 -0.009642
									CHANNELS 6 Xposition Yposition Zposition Xrotation Yrotation Zrotation
									JOINT LFinger41
									{
										OFFSET 0.068895 0.021065 -0.012771
										CHANNELS 3 Xrotation Yrotation Zrotation
										JOINT LFinger42
										{
											OFFSET 0.050521 0.015455 -0.009349
											CHANNELS 3 Xrotation Yrotation Zrotation
											End Site
											{
												OFFSET 0.050370 0.013290 -0.012838
											}
										}
									}
								}
								JOINT LFinger0
								{
									OFFSET 0.056073 -0.038007 -0.044785
									CHANNELS 6 Xposition Yposition Zposition Xrotation Yrotation Zrotation
									JOINT LFinger01
									{
										OFFSET 0.104314 -0.073613 -0.039264
										CHANNELS 3 Xrotation Yrotation Zrotation
										JOINT LFinger02
										{
											OFFSET 0.068660 -0.046056 -0.027680
											CHANNELS 3 Xrotation Yrotation Zrotation
											End Site
											{
												OFFSET 0.043017 -0.027396 -0.016661
											}
										}
									}
								}
							}
						}
					}
				}
				JOINT RClavicle
				{
					OFFSET -0.058437 -0.244385 0.621651
					CHANNELS 6 Xposition Yposition Zposition Xrotation Yrotation Zrotation
					JOINT RShoulder
					{
						OFFSET -0.353303 0.136039 0.101295
						CHANNELS 3 Xrotation Yrotation Zrotation
						JOINT RForearm
						{
							OFFSET -0.828513 -0.004156 -0.004727
							CHANNELS 3 Xrotation Yrotation Zrotation
							JOINT RHand
							{
								OFFSET -0.691136 -0.005641 0.000363
								CHANNELS 3 Xrotation Yrotation Zrotation
								JOINT RFinger1
								{
									OFFSET -0.266837 -0.079653 0.017097
									CHANNELS 6 Xposition Yposition Zposition Xrotation Yrotation Zrotation
									JOINT RFinger11
									{
										OFFSET -0.099893 -0.017186 -0.025956
										CHANNELS 3 Xrotation Yrotation Zrotation
										JOINT RFinger12
										{
											OFFSET -0.068195 -0.011737 -0.017728
											CHANNELS 3 Xrotation Yrotation Zrotation
											End Site
											{
												OFFSET -0.050653 -0.007799 -0.015876
											}
										}
									}
								}
								JOINT RFinger2
								{
									OFFSET -0.271795 -0.012252 0.025734
									CHANNELS 6 Xposition Yposition Zposition Xrotation Yrotation Zrotation
									JOINT RFinger21
									{
										OFFSET -0.123884 -0.001022 0.000052
										CHANNELS 3 Xrotation Yrotation Zrotation
										JOINT RFinger22
										{
											OFFSET -0.068669 -0.000553 0.000048
											CHANNELS 3 Xrotation Yrotation Zrotation
											End Site
											{
												OFFSET -0.053506 -0.000537 -0.003926
											}
										}
									}
								}
								JOINT RFinger3
								{
									OFFSET -0.258516 0.055856 0.021802
									CHANNELS 6 Xposition Yposition Zposition Xrotation Yrotation Zrotation
									JOINT RFinger31
									{
										OFFSET -0.112492 0.005877 -0.005471
										CHANNELS 3 Xrotation Yrotation Zrotation
										JOINT RFinger32
										{
											OFFSET -0.064106 0.003360 -0.003096
											CHANNELS 3 Xrotation Yrotation Zrotation
											End Site
											{
												OFFSET -0.053211 0.002251 -0.006485
											}
										}
									}
								}
								JOINT RFinger4
								{
									OFFSET -0.240517 0.102988 -0.010987
									CHANNELS 6 Xposition Yposition Zposition Xrotation Yrotation Zrotation
									JOINT RFinger41
									{
										OFFSET -0.069382 0.019140 -0.013160
										CHANNELS 3 Xrotation Yrotation Zrotation
										JOINT RFinger42
										{
											OFFSET -0.050879 0.014043 -0.009631
											CHANNELS 3 Xrotation Yrotation Zrotation
											End Site
											{
												OFFSET -0.050647 0.011884 -0.013123
											}
										}
									}
								}
								JOINT RFinger0
								{
									OFFSET -0.054740 -0.039546 -0.045093
									CHANNELS 6 Xposition Yposition Zposition Xrotation Yrotation Zrotation
									JOINT RFinger01
									{
										OFFSET -0.102002 -0.076488 -0.039850
										CHANNELS 3 Xrotation Yrotation Zrotation
										JOINT RFinger02
										{
											OFFSET -0.067194 -0.047947 -0.028059
											CHANNELS 3 Xrotation Yrotation Zrotation
											End Site
											{
												OFFSET -0.042143 -0.028581 -0.016901
											}
										}
									}
								}
							}
						}
					}
				}
			}
		}
	}
	JOINT RThigh
	{
		OFFSET -0.307793 0.012143 0.118149
		CHANNELS 6 Xposition Yposition Zposition Xrotation Yrotation Zrotation
		JOINT RShin
		{
			OFFSET -0.020101 0.089378 -1.205898
			CHANNELS 3 Xrotation Yrotation Zrotation
			JOINT RFoot
			{
				OFFSET 0.002104 0.088068 -1.184060
				CHANNELS 3 Xrotation Yrotation Zrotation
				JOINT RToe
				{
					OFFSET 0.004077 -0.262431 -0.150369
					CHANNELS 3 Xrotation Yrotation Zrotation
					End Site
					{
						OFFSET 0.000756 -0.053500 -0.003978
					}
				}
			}
		}
	}
	JOINT LThigh
	{
		OFFSET 0.306663 0.020697 0.119886
		CHANNELS 6 Xposition Yposition Zposition Xrotation Yrotation Zrotation
		JOINT LShin
		{
			OFFSET 0.024387 0.089997 -1.205782
			CHANNELS 3 Xrotation Yrotation Zrotation
			JOINT LFoot
			{
				OFFSET 0.002104 0.088068 -1.184059
				CHANNELS 3 Xrotation Yrotation Zrotation
				JOINT LToe
				{
					OFFSET 0.004077 -0.262433 -0.150372
					CHANNELS 3 Xrotation Yrotation Zrotation
					End Site
					{
						OFFSET 0.000756 -0.053500 -0.003978
					}
				}
			}
		}
	}
}
MOTION
Frames: 5
Frame Time: 0.041667
0.611718 -0.838114 2.461664 3.388723 -21.318993 -100.562897 -0.002641 0.134975 0.270627 -2.622514 4.661712 -0.361559 -6.254948 4.374759 -0.332794 -6.202634 7.194868 0.263323 -0.001347 -0.036707 0.660373 -3.022342 -1.490877 -0.565320 -6.685633 -3.186616 -0.534640 0.061721 -0.242713 0.621989 -0.189110 -16.586744 -1.200505 -13.101026 -44.042661 -6.983060 0.000625 0.028642 -0.343806 -0.000015 -0.000049 0.001591 0.268848 -0.072195 0.018600 0.000002 -0.000001 0.000005 -0.000001 -0.000002 0.000005 -0.000010 -0.000017 -0.000005 0.271882 -0.004680 0.027263 0.000001 0.000002 0.000006 0.000003 0.000000 -0.000001 0.000006 0.000002 0.000004 0.256734 0.063030 0.023248 0.000001 -0.000007 0.000007 -0.000004 0.000007 -0.000004 0.000006 -0.000002 0.000004 0.237615 0.109645 -0.009642 -0.000004 0.000004 0.000003 0.000002 -0.000001 -0.000001 -0.000008 0.000014 -0.000000 0.056072 -0.038006 -0.044785 0.000003 0.000003 0.000003 0.000012 -0.000005 -0.000005 -0.000007 -0.000017 0.000012 -0.058437 -0.244385 0.621650 -0.450144 -12.193917 -1.880233 56.603789 -49.486428 38.285041 0.868337 -2.520489 36.347863 -0.000002 -0.000030 -0.000007 -0.266837 -0.079653 0.017097 0.000019 -0.000005 -0.000024 0.000014 -0.000003 0.000007 0.000005 -0.000004 -0.000004 -0.271795 -0.012252 0.025734 0.000005 0.000001 -0.000011 0.000013 0.000004 -0.000001 -0.000002 -0.000011 -0.000008 -0.258515 0.055856 0.021802 0.000007 0.000004 -0.000010 0.000006 -0.000001 -0.000009 0.000002 0.000009 0.000008 -0.240517 0.102988 -0.010987 0.000007 -0.000006 -0.000018 0.000003 -0.000003 -0.000009 -0.000001 0.000001 0.000001 -0.054741 -0.039547 -0.045093 0.000002 -0.000002 -0.000023 0.000003 0.000031 -0.000025 -0.000014 0.000005 -0.000012 -0.350115 0.162619 0.177430 -45.954568 6.707549 -15.788457 38.458705 0.531074 -0.072807 -0.023472 2.071666 -3.598037 -5.251291 -0.072321 -0.018075 0.306150 0.020609 0.251636 -43.862078 -29.873875 3.837236 32.688032 0.456330 -0.039288 -1.370197 3.470735 -5.931672 -2.455116 -0.034013 -0.007646 
0.585881 -0.757418 2.481951 0.707163 -19.311597 -109.660217 -0.002641 0.134975 0.270627 -2.600172 4.393312 -0.342316 -6.747235 3.914523 -0.412983 -7.337584 6.546792 0.517298 -0.001346 -0.036707 0.660373 -2.530415 -1.411164 -0.528841 -3.273609 -2.697432 -0.365267 0.061721 -0.242714 0.621989 -0.180527 -16.971062 -1.222966 -15.015221 -46.998009 -8.229147 0.003481 0.064025 -0.860555 -0.000018 -0.000043 0.001534 0.268848 -0.072195 0.018600 0.000005 -0.000002 0.000005 0.000001 -0.000005 0.000005 -0.000011 -0.000018 -0.000003 0.271882 -0.004680 0.027262 0.000003 0.000001 0.000007 0.000002 -0.000003 -0.000006 0.000006 0.000001 0.000005 0.256733 0.063030 0.023247 0.000003 -0.000003 0.000006 -0.000005 0.000009 -0.000002 0.000006 0.000004 0.000003 0.237615 0.109645 -0.009642 -0.000003 0.000002 0.000005 0.000003 0.000000 -0.000001 -0.000010 0.000006 -0.000002 0.056072 -0.038006 -0.044785 0.000007 -0.000003 0.000005 0.000015 -0.000005 -0.000001 -0.000006 -0.000021 0.000010 -0.058437 -0.244386 0.621650 -0.633003 -12.354468 -2.189395 58.515392 -48.529116 40.334142 0.825823 -2.458947 35.282288 -0.000002 -0.000028 -0.000008 -0.266837 -0.079653 0.017097 0.000020 -0.000007 -0.000027 0.000014 0.000000 0.000007 0.000011 -0.000003 -0.000002 -0.271795 -0.012251 0.025734 0.000009 -0.000002 -0.000012 0.000010 -0.000001 -0.000002 -0.000003 -0.000012 -0.000007 -0.258515 0.055856 0.021802 0.000010 0.000006 -0.000010 0.000006 -0.000002 -0.000009 0.000003 0.000008 0.000006 -0.240517 0.102988 -0.010987 0.000011 -0.000006 -0.000016 0.000004 0.000001 -0.000009 0.000001 0.000002 0.000003 -0.054741 -0.039547 -0.045093 0.000010 -0.000003 -0.000020 -0.000003 0.000034 -0.000029 -0.000015 0.000002 -0.000012 -0.350115 0.162620 0.177431 -44.047470 3.448497 -13.964891 37.262182 0.515855 -0.065242 -1.362684 1.021767 -1.797503 -4.015063 -0.055450 -0.013227 0.306149 0.020608 0.251636 -38.142303 -27.852086 6.749473 35.006868 0.486770 -0.051854 -0.497965 2.520257 -4.379133 -6.708398 -0.092068 -0.024306 
0.566315 -0.682261 2.507264 -1.700469 -18.131791 -117.842961 -0.002641 0.134975 0.270627 -2.555934 4.115238 -0.323139 -7.284433 3.398924 -0.507891 -9.249761 5.531342 1.025473 -0.001347 -0.036707 0.660373 -2.112182 -1.338491 -0.496581 -0.625354 -2.269620 -0.249641 0.061721 -0.242714 0.621989 -0.188884 -17.029704 -1.227723 -18.320748 -49.239073 -12.640978 0.003528 0.064223 -0.863307 -0.000016 -0.000041 0.001474 0.268848 -0.072195 0.018601 0.000003 0.000001 0.000002 0.000001 -0.000000 0.000008 -0.000009 -0.000019 -0.000006 0.271882 -0.004680 0.027264 0.000007 0.000005 0.000008 0.000003 0.000003 -0.000003 0.000005 -0.000003 0.000008 0.256733 0.063030 0.023248 0.000002 -0.000005 0.000007 -0.000005 0.000006 -0.000004 0.000005 -0.000002 0.000003 0.237614 0.109645 -0.009642 -0.000001 0.000002 0.000004 0.000003 -0.000000 0.000002 -0.000012 0.000015 -0.000001 0.056072 -0.038006 -0.044784 0.000009 -0.000001 0.000003 0.000011 -0.000004 -0.000001 -0.000008 -0.000017 0.000012 -0.058437 -0.244386 0.621650 -0.747319 -12.462864 -2.381269 58.575812 -48.260378 39.683812 0.780381 -2.389950 34.136613 -0.000003 -0.000027 -0.000007 -0.266836 -0.079653 0.017097 0.000017 -0.000009 -0.000025 0.000012 0.000002 0.000011 0.000008 -0.000003 -0.000002 -0.271795 -0.012252 0.025734 0.000010 0.000001 -0.000012 0.000009 0.000002 -0.000001 -0.000005 -0.000010 -0.000008 -0.258515 0.055856 0.021802 0.000006 0.000007 -0.000011 0.000009 -0.000003 -0.000010 0.000001 0.000008 0.000008 -0.240516 0.102988 -0.010987 0.000009 -0.000005 -0.000018 0.000006 0.000001 -0.000009 -0.000001 0.000002 0.000003 -0.054741 -0.039547 -0.045093 0.000001 0.000000 -0.000019 -0.000000 0.000037 -0.000023 -0.000018 -0.000000 -0.000012 -0.350115 0.162619 0.177431 -42.574915 0.560128 -13.143433 35.339095 0.491080 -0.053752 -1.128441 0.411841 -0.736128 -3.891717 -0.053759 -0.012762 0.306149 0.020609 0.251637 -35.223569 -24.933515 8.320960 37.785436 0.522541 -0.068514 0.513946 1.061690 -1.857625 -11.937576 -0.161498 -0.050612 
0.561319 -0.614161 2.535397 -4.139018 -18.098910 -125.233690 -0.002641 0.134975 0.270626 -2.491110 3.831228 -0.304052 -7.697784 2.941447 -0.593820 -12.743058 3.620365 2.046828 -0.001347 -0.036708 0.660374 -1.629959 -1.267419 -0.464930 0.983482 -1.959647 -0.186413 0.061721 -0.242713 0.621989 -0.195542 -16.984280 -1.225999 -22.352047 -49.431541 -20.353762 0.000459 0.020483 -0.275568 -0.000008 -0.000043 0.001413 0.268849 -0.072195 0.018600 0.000003 0.000000 -0.000002 -0.000006 -0.000003 0.000003 -0.000010 -0.000017 -0.000005 0.271883 -0.004680 0.027263 0.000004 -0.000004 0.000002 0.000008 -0.000003 -0.000003 0.000008 -0.000003 0.000007 0.256734 0.063030 0.023248 0.000003 -0.000013 0.000001 -0.000002 -0.000000 -0.000006 0.000010 -0.000001 0.000004 0.237615 0.109645 -0.009642 -0.000005 -0.000001 0.000002 0.000002 0.000002 0.000003 -0.000008 0.000020 0.000003 0.056073 -0.038006 -0.044785 0.000006 0.000002 -0.000003 0.000013 -0.000006 -0.000006 -0.000010 -0.000018 0.000015 -0.058437 -0.244385 0.621650 -0.808276 -12.540373 -2.482648 56.156446 -49.595742 34.940943 0.742201 -2.333998 33.224485 -0.000002 -0.000029 -0.000006 -0.266837 -0.079654 0.017097 0.000019 -0.000009 -0.000026 0.000010 -0.000001 0.000007 0.000011 -0.000006 -0.000002 -0.271795 -0.012252 0.025733 0.000009 -0.000001 -0.000013 0.000011 -0.000000 -0.000002 -0.000002 -0.000009 -0.000007 -0.258515 0.055856 0.021802 0.000008 0.000003 -0.000011 0.000007 -0.000001 -0.000009 -0.000000 0.000008 0.000009 -0.240517 0.102988 -0.010987 0.000010 -0.000006 -0.000019 0.000005 -0.000001 -0.000009 -0.000001 0.000000 0.000005 -0.054741 -0.039547 -0.045093 0.000004 -0.000003 -0.000025 0.000002 0.000038 -0.000023 -0.000015 0.000004 -0.000012 -0.350115 0.162619 0.177430 -42.023852 -2.296413 -12.927031 32.762672 0.457305 -0.039672 1.626961 -0.247501 0.533808 -5.783271 -0.079552 -0.020279 0.306149 0.020608 0.251636 -35.294787 -22.094721 8.814107 40.405292 0.555487 -0.085795 1.569778 -0.282913 0.557468 -16.489347 -0.219763 -0.078584 
0.563634 -0.548706 2.560219 -6.937541 -18.957270 -132.599981 -0.002640 0.134975 0.270627 -2.413055 3.537580 -0.284161 -7.954729 2.571261 -0.665867 -17.614523 0.846953 3.205943 -0.001347 -0.036708 0.660373 -1.079798 -1.198313 -0.434024 1.692711 -1.808749 -0.159363 0.061721 -0.242713 0.621989 -0.198247 -16.969142 -1.227381 -26.091094 -47.817427 -29.438901 -0.002852 -0.036407 0.488814 -0.000012 -0.000040 0.001356 0.268849 -0.072195 0.018600 0.000006 -0.000006 0.000004 -0.000002 -0.000006 0.000007 -0.000007 -0.000018 -0.000003 0.271882 -0.004680 0.027262 0.000006 -0.000000 0.000007 0.000002 -0.000003 -0.000002 0.000008 -0.000002 0.000005 0.256733 0.063030 0.023247 0.000001 -0.000012 0.000009 -0.000003 0.000003 -0.000002 0.000008 -0.000000 0.000004 0.237615 0.109645 -0.009643 -0.000003 -0.000000 0.000008 0.000003 -0.000003 -0.000001 -0.000010 0.000010 -0.000006 0.056072 -0.038007 -0.044785 0.000003 -0.000003 0.000006 0.000013 -0.000006 -0.000003 -0.000012 -0.000019 0.000015 -0.058437 -0.244386 0.621650 -0.805963 -12.583318 -2.477639 52.290648 -51.797733 28.071360 0.689456 -2.255381 31.962922 -0.000004 -0.000030 -0.000008 -0.266837 -0.079653 0.017097 0.000018 -0.000009 -0.000024 0.000013 0.000002 0.000011 0.000009 -0.000004 -0.000002 -0.271795 -0.012252 0.025734 0.000008 -0.000001 -0.000012 0.000012 0.000002 -0.000001 -0.000002 -0.000010 -0.000008 -0.258515 0.055856 0.021802 0.000007 0.000002 -0.000011 0.000008 0.000003 -0.000010 -0.000001 0.000008 0.000009 -0.240517 0.102988 -0.010987 0.000010 -0.000007 -0.000020 0.000006 0.000003 -0.000008 -0.000003 0.000004 0.000003 -0.054741 -0.039547 -0.045093 0.000006 -0.000004 -0.000020 -0.000002 0.000034 -0.000020 -0.000013 0.000004 -0.000013 -0.350115 0.162619 0.177431 -42.494743 -5.201415 -12.692144 30.794758 0.431105 -0.029946 4.399253 -1.021516 2.114967 -8.185665 -0.111925 -0.031031 0.306149 0.020608 0.251637 -37.944047 -19.709971 8.494222 42.733587 0.584084 -0.102401 2.359980 -1.135326 2.142165 -19.485543 -0.256828 -0.099480 
